<svg width="1070" height="460" version="1.1" xmlns="http://www.w3.org/2000/svg"><g transform="translate(60,40)"><g class="x axis" transform="translate(0,360)"><path class="domain" d="M0,6V0H810V6"/></g><g class="y axis"><path class="domain" d="M-6,0H0V360H-6"/></g><g class="grid" transform="translate(0,360)"><path class="domain" d="M0,0V0H810V0"/></g><g class="grid"><path class="domain" d="M0,0H0V360H0"/></g><g class="level" id="tp-2015_03_22_02_51_31_658avg" visibility="visible"><path class="line" d="M0,360" stroke="#0000CD"/></g><g class="level" id="tp-2015_03_22_02_51_31_6581min" visibility="hidden"><path class="line" d="M0,360" stroke="#006400"/></g><g class="level" id="tp-2015_03_22_02_51_31_6585min" visibility="hidden"><path class="line" d="M0,360" stroke="#8B0000"/></g><g class="level" id="tp-2015_03_22_02_51_31_65815min" visibility="hidden"><path class="line" d="M0,360" stroke="#8B008B"/></g><text x="808" y="358" style="text-anchor: end;">seconds[s]</text><text transform="rotate(-90)" y="6" x="0" dy=".71em" style="text-anchor: end;">TP[obj/s]</text><g class="legend" transform="translate(0,0)"><rect x="828" width="18" height="18" style="fill: rgb(0, 0, 205);"/><text x="910" y="9" dy=".35em" style="text-anchor: end;">avg</text></g><g class="legend" transform="translate(0,20)"><rect x="828" width="18" height="18" style="fill: rgb(0, 100, 0);"/><text x="910" y="9" dy=".35em" style="text-anchor: end;">1min</text></g><g class="legend" transform="translate(0,40)"><rect x="828" width="18" height="18" style="fill: rgb(139, 0, 0);"/><text x="910" y="9" dy=".35em" style="text-anchor: end;">5min</text></g><g class="legend" transform="translate(0,60)"><rect x="828" width="18" height="18" style="fill: rgb(139, 0, 139);"/><text x="910" y="9" dy=".35em" style="text-anchor: end;">15min</text></g><text x="405" y="-20" text-anchor="middle" style="font-size: 16px; text-decoration: underline;">0-S3-Create-1x1</text></g></svg>